<?xml version="1.0" encoding="UTF-8" standalone="no"?>
<!-- Created with Inkscape (http://www.inkscape.org/) -->

<svg
   width="1200"
   height="630"
   viewBox="0 0 317.49999 166.68749"
   version="1.1"
   id="svg5"
   inkscape:version="1.1.1 (3bf5ae0d25, 2021-09-20)"
   sodipodi:docname="default.svg"
   inkscape:export-filename="default.png"
   inkscape:export-xdpi="96"
   inkscape:export-ydpi="96"
   xmlns:inkscape="http://www.inkscape.org/namespaces/inkscape"
   xmlns:sodipodi="http://sodipodi.sourceforge.net/DTD/sodipodi-0.dtd"
   xmlns="http://www.w3.org/2000/svg"
   xmlns:svg="http://www.w3.org/2000/svg">
  <sodipodi:namedview
     id="namedview7"
     pagecolor="#ffffff"
     bordercolor="#666666"
     borderopacity="1.0"
     inkscape:pageshadow="2"
     inkscape:pageopacity="0.0"
     inkscape:pagecheckerboard="0"
     inkscape:document-units="mm"
     showgrid="false"
     inkscape:zoom="0.6256929"
     inkscape:cx="855.05206"
     inkscape:cy="346.81551"
     inkscape:window-width="1600"
     inkscape:window-height="865"
     inkscape:window-x="0"
     inkscape:window-y="21"
     inkscape:window-maximized="1"
     inkscape:current-layer="layer1"
     fit-margin-top="0"
     fit-margin-left="0"
     fit-margin-right="0"
     fit-margin-bottom="0"
     units="px" />
  <defs
     id="defs2" />
  <g
     inkscape:label="Layer 1"
     inkscape:groupmode="layer"
     id="layer1"
     transform="translate(19.769168,-96.334614)">
    <rect
       style="fill:#ececec;fill-opacity:0.992162;stroke-width:0.499999;stroke-miterlimit:10"
       id="rect37"
       width="317.5"
       height="166.6875"
       x="-19.769169"
       y="96.334618" />
    <g
       id="g89013"
       transform="matrix(1.7598877,0.38747039,-0.38747039,1.7598877,77.72574,-42.915892)">
      <circle
         style="fill:#a8d8b2;fill-opacity:1;stroke:none;stroke-width:2;stroke-miterlimit:10;stroke-dasharray:none"
         id="path4620"
         cx="8.5056372"
         cy="124.60941"
         r="27.270113" />
      <path
         id="path25956"
         style="fill:#bf916d;stroke-width:0.291817;stroke-miterlimit:10"
         transform="scale(0.26458333)"
         d="m 87.355469,460.97461 c -2.938798,0.0454 -5.002724,0.16142 -7.458985,0.36719 -6.255044,0.52398 -10.644312,1.25511 -13.271484,2.28125 -4.39549,1.71681 -12.120806,6.48499 -15.548828,9.60156 -2.279025,2.07198 -4.394638,4.93785 -5.390625,7.35937 -0.566507,1.37734 -0.736602,2.453 -0.742188,4.58594 -0.0094,3.59019 0.798627,6.72632 2.712891,10.60938 3.979298,8.07192 12.664504,13.6026 26.861328,17.36523 4.122441,1.09258 18.212478,4.20442 21.087891,4.64649 4.655411,0.71572 13.100401,1.2784 23.726561,1.59375 0.71835,0.0213 1.39358,0.0479 1.90039,0.0723 0.25341,0.0122 0.46633,0.0248 0.61524,0.0352 0.0744,0.005 0.1342,0.0101 0.16992,0.0137 0.0357,0.004 0.0959,0.025 -0.0371,-0.0137 0.46635,0.13548 0.70512,-0.0995 0.83984,-0.2168 0.13472,-0.1173 0.22741,-0.23548 0.33008,-0.375 0.20534,-0.27904 0.42475,-0.64243 0.67578,-1.09766 0.50207,-0.91044 1.11915,-2.17672 1.78321,-3.64453 1.3281,-2.93561 2.83928,-6.66535 3.91601,-9.82422 2.42347,-7.10988 4.11339,-14.63653 5.00781,-22.31445 0.45355,-3.89777 0.70685,-12.95885 0.44922,-16.37695 l -0.21289,-2.81641 a 0.73327047,0.73327047 0 0 0 -0.68555,-0.67773 l -3.11132,-0.1875 c -7.78428,-0.47115 -17.65571,-0.76916 -30.86914,-0.9336 -5.992824,-0.0746 -9.809506,-0.0981 -12.748051,-0.0527 z" />
      <path
         id="path25917"
         style="fill:#de896f;stroke-width:0.291817;stroke-miterlimit:10"
         transform="scale(0.26458333)"
         d="m -38.726562,462.28516 c -2.395437,-0.24848 -6.276192,0.25558 -8.798829,1.10351 -2.464089,0.82825 -7.000289,3.53296 -8.910156,5.3086 -0.518257,0.48183 -0.89612,0.87801 -1.173828,1.33398 -0.277708,0.45597 -0.412109,0.98797 -0.412109,1.47461 0,0.3354 0.03799,0.651 0.117187,0.94726 0.0792,0.29627 0.04377,0.60371 0.634766,0.96876 0.279372,0.17194 0.409112,0.14897 0.507812,0.15429 0.09905,0.005 0.16799,4.1e-4 0.234375,-0.006 0.13277,-0.0125 0.253477,-0.034 0.392578,-0.0625 0.278204,-0.0569 0.618093,-0.1431 1.021485,-0.25586 0.806783,-0.22552 1.855208,-0.55601 2.974609,-0.9414 4.837856,-1.66558 6.478499,-1.74546 11.003906,-0.54297 7.64438,2.03128 15.694084,6.31408 24.753907,13.22461 2.865067,2.18538 3.327288,2.38603 6.115234,2.86523 0.7673191,0.13189 1.4978007,0.2633 2.0527344,0.36719 0.2774668,0.052 0.5109386,0.0964 0.6796875,0.13086 0.1687489,0.0344 0.3574325,0.0916 0.21875,0.0449 0.195897,0.066 0.230777,0.0549 0.3105469,0.0644 0.07977,0.01 0.1647244,0.0183 0.2617187,0.0254 0.1939885,0.0143 0.4359947,0.0258 0.7207031,0.0371 0.5694168,0.0226 1.3025044,0.0388 2.0742188,0.0449 1.6131102,0.0128 2.7895676,-0.0774 3.77929685,-0.46485 0.9897293,-0.3874 1.71000605,-1.13692 2.18359375,-2.05273 0.1505533,-0.29114 0.2886609,-0.54161 0.3925781,-0.86914 0.1039172,-0.32753 0.1375432,-0.72782 0.080078,-1.10157 -0.1149301,-0.74748 -0.4496515,-1.45686 -1.0644531,-2.9082 -1.37831243,-3.25371 -3.4390024,-6.4116 -6.5195312,-10.02734 l -2.3339844,-2.74024 a 0.97163206,0.97163206 0 0 0 -0.6972656,-0.33984 l -3.7109378,-0.16797 h -0.002 c -3.463072,-0.15813 -3.719856,-0.215 -7.753906,-1.59766 -6.051816,-2.07424 -11.588559,-3.23505 -19.132812,-4.01757 z" />
      <path
         id="path25841"
         style="fill:#52534b;stroke-width:0.291817;stroke-miterlimit:10"
         transform="scale(0.26458333)"
         d="m -40.388672,430.90234 c -1.328208,-0.2037 -2.698043,-0.0188 -5.380859,0.29688 -2.943202,0.34635 -5.031536,0.75848 -6.492188,1.375 -0.730325,0.30826 -1.315577,0.67233 -1.74414,1.1582 -0.428564,0.48588 -0.666016,1.11362 -0.666016,1.74024 0,0.9774 0.536817,1.80447 1.193359,2.70507 0.656542,0.90061 1.47495,1.76596 2.339844,2.31446 0.463873,0.29418 1.20681,0.63886 2.152344,1.04687 0.945534,0.40801 2.061723,0.85256 3.134766,1.24219 4.127264,1.49861 12.324751,5.46832 16.908203,8.19727 1.599852,0.95254 4.363256,2.82827 6.048828,4.10742 1.722148,1.3069 4.378558,3.31862 5.904297,4.4707 3.35143,2.53066 11.5489617,11.37405 15.1171871,16.38281 0.8242661,1.15703 1.80462783,3.00924 2.55468752,4.73438 0.37502988,0.86257 0.69629538,1.69675 0.91796878,2.39453 0.2216734,0.69778 0.3329424,1.2886 0.3339844,1.50195 0.00542,1.10857 -0.8620679,2.47118 -2.06835942,3.07031 -0.35262983,0.17515 -1.39767668,0.37292 -2.70898438,0.40821 -1.3113077,0.0353 -2.918818,-0.0455 -4.5917969,-0.22461 -3.3459581,-0.3583 -6.9843991,-1.12669 -9.0703121,-2.0293 -1.613456,-0.69814 -2.516463,-0.85962 -4.664063,-0.82226 -1.464338,0.0255 -4.008534,0.3178 -5.830078,0.6582 -1.68022,0.31399 -5.375073,0.72162 -8.066406,0.88086 -5.096181,0.30153 -9.387718,0.85766 -12.769532,1.6543 -3.381813,0.79663 -5.860128,1.80151 -7.36914,3.18554 -0.668857,0.61346 -1.16353,1.14155 -1.419922,1.80078 -0.128196,0.32962 -0.182532,0.71619 -0.08984,1.08985 0.09269,0.37365 0.320142,0.69225 0.591797,0.93359 0.54331,0.48269 1.269541,0.76631 2.265625,1.05078 0.996084,0.28447 2.267942,0.54442 3.869141,0.81836 5.268047,0.90127 7.196173,1.04595 17.853515,1.32813 9.733981,-0.0961 20.202661,1.81328 29.5605472,1.59767 1.3077295,-0.0303 2.6014896,-0.0721 3.6191407,-0.12109 1.2396548,-0.16403 2.4786899,0.0433 3.6989328,0.13933 0.5172001,-0.15604 0.072644,-0.97852 0.3045664,-1.51132 0.2319219,-0.53281 -0.3385655,-1.21433 -0.075765,-2.27837 0.5825431,-2.35862 0.6871732,-3.62089 0.6816407,-8.37695 -0.0072,-6.19148 -0.3923995,-11.75688 -1.0683594,-14.49415 -0.2711937,-1.09817 -1.1035548,-3.20982 -1.9160156,-4.96484 -1.96873459,-4.25272 -2.37283272,-6.0328 -2.0292969,-7.30859 0.1298375,-0.48218 0.19669723,-0.65212 0.6699219,-1.14453 0.4732246,-0.49242 1.3604033,-1.22783 2.9394531,-2.47461 8.6819971,-6.85512 10.7825261,-8.60638 13.5917971,-11.32422 1.702315,-1.64692 2.862577,-2.8649 3.615234,-3.84766 0.752657,-0.98276 1.184736,-1.77699 1.058594,-2.65234 -0.06489,-0.45034 -0.426417,-1.13444 -1.052734,-1.43164 -0.626317,-0.29721 -1.427324,-0.42429 -2.789063,-0.54102 -2.723477,-0.23346 -7.68519,-0.32425 -17.0566406,-0.46094 -21.0116574,-0.30645 -24.9594234,-0.55247 -30.8339844,-1.91992 -2.302497,-0.53596 -3.918186,-1.1474 -6.673828,-2.5332 -2.079572,-1.04582 -3.169631,-1.61853 -4.498047,-1.82227 z"
         sodipodi:nodetypes="ssssssssssssssssssssssssssssssccccssssssssssssssssss" />
      <path
         style="fill:#22211c;fill-opacity:1;stroke:none;stroke-width:0.264583px;stroke-linecap:butt;stroke-linejoin:miter;stroke-opacity:1"
         d="m 34.841854,117.80898 c -2.810141,-0.11879 -7.673473,-1.96306 -9.930791,-2.6922 -2.257318,-0.72914 -3.785947,-1.01503 -5.496507,-1.478 -1.71056,-0.46297 -3.347103,-1.04619 -4.766837,-1.29977 -1.419734,-0.25358 -3.088497,-0.17812 -3.706196,-0.21373 -0.617699,-0.0356 -1.8659295,0.006 -3.1122411,0.55823 -1.2463116,0.55257 -4.2925536,2.88597 -3.9728687,3.06536 0.3196849,0.17939 2.7247926,-0.26969 1.9181098,1.07633 -0.8066828,1.34602 -4.5452093,3.88372 -5.41890525,4.76506 -1.01180077,1.02065 0.67425965,3.57556 0.96022115,6.28951 0.2859616,2.71395 -0.55050129,4.50474 -0.052796,4.79605 0.7078393,0.35002 0.9867786,0.21534 2.7881339,0.39773 1.8013553,0.18239 5.3263359,0.91347 7.9066652,1.54802 1.365095,0.35165 3.017819,0.88462 4.542648,1.26679 2.830566,0.70943 5.980613,1.51801 8.54489,1.90351 2.564277,0.3855 5.188276,0.53612 6.480979,0.61893 1.292704,0.0828 1.364944,-0.94713 0.889265,-0.99216 -1.397146,-0.1011 -4.872695,-0.23778 -8.152779,-0.86026 -3.280083,-0.62248 -8.203361,-1.24252 -10.80338,-4.08133 -1.198438,-1.3085 -1.896737,-3.68658 -1.437573,-5.12536 0.612211,-1.73721 2.363305,-2.9392 3.964965,-3.8488 1.591235,-0.90368 2.285409,-1.22858 5.301823,-1.42431 2.449732,-0.3145 13.182026,0.1141 14.356399,0.23027 0.04049,-0.95973 -0.694961,-4.49987 -0.803225,-4.49987 z"
         id="path87"
         sodipodi:nodetypes="czzzzzzzszczcazzczacaccc" />
      <ellipse
         style="fill:#000000;fill-opacity:1;stroke:#cccccc;stroke-width:0.5;stroke-miterlimit:10;stroke-dasharray:none"
         id="path146"
         cx="11.240932"
         cy="120.32372"
         rx="2.4236465"
         ry="2.5101185" />
      <ellipse
         style="fill:#ffffff;stroke:#ffffff;stroke-width:0.264583;stroke-miterlimit:10"
         id="path286"
         cx="12.22274"
         cy="119.67685"
         rx="0.46023041"
         ry="0.47513807" />
      <circle
         style="fill:none;fill-opacity:1;stroke:#22211c;stroke-width:2;stroke-miterlimit:10;stroke-dasharray:none"
         id="path4620-1"
         cx="8.5056372"
         cy="124.60941"
         r="27.270113" />
    </g>
    <text
       xml:space="preserve"
       style="font-size:10.5833px;line-height:1.25;font-family:'Font Awesome 5 Brands';-inkscape-font-specification:'Font Awesome 5 Brands';stroke-width:0.264583"
       x="134.89229"
       y="211.65625"
       id="text10036"><tspan
         sodipodi:role="line"
         id="tspan10034"
         style="stroke-width:0.264583"
         x="134.89229"
         y="211.65625" /></text>
    <rect
       style="fill:#22211c;fill-opacity:1;stroke-width:0.499999;stroke-miterlimit:10"
       id="rect14097"
       width="317.5"
       height="5.2916665"
       x="-19.769169"
       y="96.334618" />
    <rect
       style="fill:#a8d8b2;fill-opacity:1;stroke-width:0.288675;stroke-miterlimit:10"
       id="rect14097-2-8"
       width="105.83334"
       height="5.2916665"
       x="-19.769169"
       y="257.73044" />
    <rect
       style="fill:#bf916d;fill-opacity:1;stroke-width:0.288675;stroke-miterlimit:10"
       id="rect14097-2"
       width="105.83334"
       height="5.2916665"
       x="86.064133"
       y="257.73047" />
    <rect
       style="fill:#22211c;fill-opacity:1;stroke-width:0.288675;stroke-miterlimit:10"
       id="rect14097-2-9"
       width="105.83334"
       height="5.2916665"
       x="191.89748"
       y="257.73047" />
    <g
       id="g37961"
       transform="translate(0,5.388218)">
      <text
         xml:space="preserve"
         style="font-style:normal;font-weight:normal;font-size:35.2778px;line-height:1.25;font-family:sans-serif;fill:#22211c;fill-opacity:1;stroke:none;stroke-width:1.13633"
         x="110.35879"
         y="157.28818"
         id="text2234"><tspan
           sodipodi:role="line"
           id="tspan2232"
           style="font-style:normal;font-variant:normal;font-weight:normal;font-stretch:normal;font-size:35.2778px;font-family:'Noto Sans';-inkscape-font-specification:'Noto Sans';fill:#22211c;fill-opacity:1;stroke-width:1.13633"
           x="110.35879"
           y="157.28818">Nēnē</tspan></text>
      <text
         xml:space="preserve"
         style="font-style:normal;font-weight:normal;font-size:11.9944px;line-height:1.25;font-family:sans-serif;fill:#22211c;fill-opacity:1;stroke:none;stroke-width:0.293725"
         x="113.78072"
         y="181.85181"
         id="text4304"><tspan
           sodipodi:role="line"
           id="tspan4302"
           style="font-style:normal;font-variant:normal;font-weight:normal;font-stretch:normal;font-size:11.9944px;font-family:'Noto Sans';-inkscape-font-specification:'Noto Sans';fill:#22211c;fill-opacity:1;stroke-width:0.293725"
           x="113.78072"
           y="181.85181">A no-frills static site generator</tspan></text>
    </g>
    <g
       id="g37762"
       transform="translate(-5.8208364,1.316405)">
      <path
         d="m 124.7408,219.93392 c 0,0.062 -0.0712,0.11155 -0.16107,0.11155 -0.10221,0.01 -0.17348,-0.0403 -0.17348,-0.11155 0,-0.0619 0.0712,-0.11156 0.16108,-0.11156 0.093,-0.01 0.17347,0.0403 0.17347,0.11156 z m -0.9634,-0.13941 c -0.0217,0.062 0.0403,0.1332 0.13321,0.1518 0.0804,0.0309 0.17347,0 0.19206,-0.062 0.0186,-0.0619 -0.0403,-0.1332 -0.13322,-0.16108 -0.0805,-0.0217 -0.17036,0.01 -0.19205,0.0712 z m 1.36923,-0.0526 c -0.0898,0.0217 -0.1518,0.0804 -0.14251,0.15179 0.01,0.062 0.0898,0.10219 0.18277,0.0806 0.0899,-0.0217 0.1518,-0.0806 0.1425,-0.14251 -0.01,-0.0589 -0.093,-0.0991 -0.18276,-0.0898 z m 2.03835,-11.87078 c -4.29666,0 -7.58342,3.26198 -7.58342,7.55864 0,3.43546 2.16226,6.37527 5.25077,7.40994 0.39652,0.0712 0.53592,-0.17348 0.53592,-0.37483 0,-0.19208 -0.01,-1.25152 -0.01,-1.90206 0,0 -2.16846,0.46467 -2.62384,-0.92314 0,0 -0.35315,-0.90147 -0.86118,-1.13379 0,0 -0.7094,-0.48637 0.0496,-0.47707 0,0 0.77135,0.0619 1.19574,0.79923 0.67842,1.19575 1.81532,0.85191 2.25831,0.64744 0.0712,-0.49564 0.2726,-0.83949 0.49563,-1.04395 -1.73166,-0.19208 -3.47882,-0.44299 -3.47882,-3.42307 0,-0.8519 0.23542,-1.27941 0.73108,-1.82461 -0.0805,-0.20136 -0.34386,-1.03156 0.0804,-2.1034 0.64744,-0.20136 2.13749,0.83639 2.13749,0.83639 0.61956,-0.17347 1.28558,-0.2633 1.94542,-0.2633 0.65983,0 1.32586,0.0898 1.94541,0.2633 0,0 1.49004,-1.04086 2.13749,-0.83639 0.4244,1.07493 0.16108,1.90204 0.0804,2.1034 0.49564,0.54831 0.79923,0.97581 0.79923,1.82461 0,2.98938 -1.82461,3.2279 -3.55627,3.42307 0.28499,0.24472 0.52662,0.70939 0.52662,1.43737 0,1.04395 -0.01,2.33575 -0.01,2.58977 0,0.20135 0.14249,0.44609 0.53591,0.37483 3.09781,-1.02847 5.19812,-3.96828 5.19812,-7.40374 0,-4.29666 -3.48504,-7.55864 -7.78169,-7.55864 z m -4.57235,10.68431 c -0.0403,0.0309 -0.0309,0.10221 0.0217,0.16109 0.0496,0.0496 0.12081,0.0712 0.16109,0.0309 0.0403,-0.0309 0.0309,-0.1022 -0.0217,-0.16109 -0.0496,-0.0496 -0.12083,-0.0712 -0.16109,-0.0309 z m -0.33458,-0.25092 c -0.0216,0.0403 0.01,0.0898 0.0712,0.12082 0.0496,0.0309 0.11155,0.0217 0.1332,-0.0217 0.0217,-0.0403 -0.01,-0.0899 -0.0712,-0.12082 -0.0619,-0.0186 -0.11156,-0.01 -0.13321,0.0217 z m 1.0037,1.10283 c -0.0496,0.0403 -0.0309,0.1332 0.0403,0.19206 0.0712,0.0712 0.16108,0.0804 0.20135,0.0309 0.0403,-0.0403 0.0217,-0.1332 -0.0403,-0.19206 -0.0681,-0.0712 -0.16108,-0.0805 -0.20135,-0.0309 z m -0.35315,-0.45537 c -0.0496,0.0309 -0.0496,0.11155 0,0.18275 0.0496,0.0712 0.1332,0.10219 0.17349,0.0712 0.0496,-0.0403 0.0496,-0.12081 0,-0.19205 -0.0435,-0.0712 -0.12392,-0.1022 -0.17349,-0.0619 z"
         id="path13194"
         style="fill:#22211c;fill-opacity:1;stroke-width:0.0309778" />
      <text
         xml:space="preserve"
         style="font-size:11.9944px;line-height:1.25;font-family:'Noto Sans Mono';-inkscape-font-specification:'Noto Sans Mono';stroke-width:0.319536"
         x="141.17732"
         y="219.85962"
         id="text29562"><tspan
           sodipodi:role="line"
           id="tspan29560"
           style="font-size:11.9944px;stroke-width:0.319536"
           x="141.17732"
           y="219.85962">leouieda/nene</tspan></text>
    </g>
  </g>
</svg>
